<?xml version="1.0" encoding="UTF-8" standalone="no"?>
<svg xmlns="http://www.w3.org/2000/svg" width="1024" height="1024" viewBox="0 0 512 512">
  <!-- Genesis-X X-Core (transparent) -->
  <defs>
    <!-- Colors (Quantum Emerald palette) -->
    <linearGradient id="beamA" x1="0%" y1="0%" x2="100%" y2="100%">
      <stop offset="0%"  stop-color="#00C58E"/>
      <stop offset="60%" stop-color="#33E1D1"/>
      <stop offset="100%" stop-color="#0099FF"/>
    </linearGradient>
    <linearGradient id="beamB" x1="100%" y1="0%" x2="0%" y2="100%">
      <stop offset="0%"  stop-color="#0099FF"/>
      <stop offset="60%" stop-color="#33E1D1"/>
      <stop offset="100%" stop-color="#00C58E"/>
    </linearGradient>

    <!-- Glow filters -->
    <filter id="outerGlow" x="-30%" y="-30%" width="160%" height="160%">
      <feGaussianBlur in="SourceGraphic" stdDeviation="16" result="blur"/>
      <feColorMatrix in="blur" type="matrix"
        values="1 0 0 0 0
                0 1 0 0 0
                0 0 1 0 0
                0 0 0 1 0" result="glow"/>
      <feMerge>
        <feMergeNode in="glow"/>
        <feMergeNode in="SourceGraphic"/>
      </feMerge>
    </filter>

    <filter id="softGlow" x="-40%" y="-40%" width="180%" height="180%">
      <feGaussianBlur stdDeviation="28"/>
    </filter>

    <!-- Center core glow -->
    <radialGradient id="coreGrad" cx="50%" cy="50%" r="50%">
      <stop offset="0%"  stop-color="#FFFFFF" stop-opacity="1"/>
      <stop offset="40%" stop-color="#8E44FF" stop-opacity="0.95"/>
      <stop offset="70%" stop-color="#00C58E" stop-opacity="0.55"/>
      <stop offset="100%" stop-color="#0099FF" stop-opacity="0.0"/>
    </radialGradient>

    <!-- Beam shapes as symbols (rounded rectangles) -->
    <symbol id="beamSymbol" viewBox="0 0 360 48" overflow="visible">
      <rect x="0" y="0" width="360" height="48" rx="24" ry="24" fill="url(#beamA)"/>
    </symbol>
  </defs>

  <!-- Soft background glow (transparent edges; useful on light backgrounds) -->
  <g opacity="0.85" filter="url(#softGlow)">
    <g transform="translate(256,256) rotate(45) translate(-180,-24)">
      <rect x="0" y="0" width="360" height="48" rx="24" ry="24" fill="url(#beamA)"/>
    </g>
    <g transform="translate(256,256) rotate(-45) translate(-180,-24)">
      <rect x="0" y="0" width="360" height="48" rx="24" ry="24" fill="url(#beamB)"/>
    </g>
  </g>

  <!-- Main beams with outer glow -->
  <g filter="url(#outerGlow)">
    <g transform="translate(256,256) rotate(45) translate(-180,-24)">
      <rect x="0" y="0" width="360" height="48" rx="24" ry="24" fill="url(#beamA)"/>
    </g>
    <g transform="translate(256,256) rotate(-45) translate(-180,-24)">
      <rect x="0" y="0" width="360" height="48" rx="24" ry="24" fill="url(#beamB)"/>
    </g>
  </g>

  <!-- Center core -->
  <circle cx="256" cy="256" r="56" fill="url(#coreGrad)"/>
  <circle cx="256" cy="256" r="14" fill="#FFFFFF" opacity="0.9"/>
</svg>
